<?xml version="1.0" encoding="utf-8"?>
<!-- Generator: Adobe Illustrator 20.0.0, SVG Export Plug-In . SVG Version: 6.00 Build 0)  -->
<svg version="1.1" id="Layer_1" xmlns="http://www.w3.org/2000/svg" xmlns:xlink="http://www.w3.org/1999/xlink" x="0px" y="0px"
	 viewBox="0 0 600 209.8" style="enable-background:new 0 0 600 209.8;" xml:space="preserve">
<path d="M115.8,9.3c2.6,0.6,5.3,1,7.9,1.7c11.8,3.4,19.5,12.5,20.8,24.8c1.7,15.7-3.9,29.1-13.1,41.2
	c-10.4,13.7-24.6,22.9-39.8,30.6c-11.3,5.7-23.2,10-35.4,13.5c-1,0.3-2,0.6-3.6,1.1c4.6,6.3,8.8,12.5,13.4,18.4
	c14,18.1,30,34.1,49.3,46.6c1.8,1.2,2,2.5,0.9,4.1c-0.4,0.6-0.9,1.3-1.4,1.9c-3.9,4.8-5,4.9-10.1,1.5c-24.6-16.9-43.8-38.9-60-63.7
	c-0.8-1.2-1.6-2.4-2.7-4c-10.2,25.6-18.8,51.1-26.4,77.5c-1.8-0.8-3.5-1.3-4.9-2.1c-3.4-2-4-3.4-2.8-7.2
	c7.2-21.8,14.5-43.5,21.8-65.3c0.3-0.9,0.7-1.8,1.2-3.3c-6.1,2.3-9.6-0.5-12.6-5.5c4.3-0.8,8.3-1.8,12.4-2.4s5.9-1.6,2.8-6.2
	c-1.3-2-2.3-4.3-3.6-6.4c-1.3-2-1.1-4,0.4-5.6c1.8-2,3.9-3.8,6.2-6c1.6,2.8,2.8,4.9,4.3,7.4c2-4.8,3.8-9.1,5.7-13.4
	C51.8,76.8,57,65.2,62,53.5c0.9-2,1.9-2.5,3.8-1.5c1.1,0.6,2.2,1.2,3.3,1.8c2.3,1.5,2.8,3.3,1.6,6C63.3,76.6,56,93.5,48.8,110.4
	c-0.5,1.2-0.8,2.4-1.1,3.6c0.2,0.2,0.5,0.4,0.7,0.7c6-2,12-3.8,17.9-5.9c17.3-6.3,33.5-14.7,47.2-27.4c9.8-9.1,17.8-19.4,20.8-32.8
	c1.3-5.9,2-11.9,1-18c-1.4-9.1-7-14.3-16.3-14.2c-8.8,0.1-17,3-25.1,6.1c-19.7,7.6-36.7,19.7-52.7,33.1c-4.4,3.7-8.7,7.6-12.7,11.7
	c-1.9,1.9-3.6,2.1-5.6,0.6c-1.7-1.3-3.3-2.8-5.4-4.6c3.7-3.5,7-6.7,10.4-9.7c17.4-15.2,35.9-28.8,57.5-37.4c8-3.2,16.1-5.8,24.7-6.5
	c0.4,0,0.7-0.3,1.1-0.4C112.7,9.3,114.3,9.3,115.8,9.3z"/>
<path d="M305,172.8c-1.6-0.9-3-1.7-4.3-2.6c-2.2-1.7-3.1-3.5-1.7-6.5c6.1-13,11.9-26.2,17.8-39.3c0.4-0.8,0.7-1.6,1.3-2.9
	c-1.9,0.4-3.4,0.6-4.8,1c-8.6,2.4-17.2,4.7-25.8,7.2c-5.8,1.6-8,0.6-10.8-5.4c2.7-0.8,5.3-1.7,8-2.4c12-3.2,24.1-6.3,36.1-9.5
	c1.2-0.3,2.4-1.6,3-2.7c8.3-16.6,16.2-33.5,24.8-49.9c6.8-13,14.5-25.6,24.3-36.7c1.9-2.2,4-4.3,6.5-5.8c4.1-2.5,8.7-1.3,11.6,2.6
	c2.7,3.6,4.3,7.8,4.2,12.2c-0.2,8.4-0.4,16.8-1.5,25c-1.9,14.4-4.4,28.7-6.6,43c-0.1,0.5,0,1,0,1.9c2.9,0,5.8-0.5,8.6,0.1
	c3,0.6,4.5,3.4,5.8,6.2c-4.7,0.3-9.2,0.6-13.6,0.8c-1.6,0.1-2.4,0.6-2.6,2.3c-2.4,19.6-5,39.2-7.4,58.8c-0.4,2.9,0,5.8,0,9.2
	c1.2,0,2.4,0,3.6,0c20.2-0.4,40.4-0.9,60.6-1.3c0.5,0,1-0.2,1.5,0c0.8,0.3,1.5,0.8,2.2,1.2c-0.7,0.4-1.5,1.2-2.2,1.2
	c-14.3,0.7-28.7,1.2-43,1.8c-7.4,0.3-14.8,0.8-22.8,1.3c1.2,3.7,2.3,7,3.4,10.3c-3.3-0.2-6.5-2.8-8.1-7.2c-0.8-2.2-1.9-2.9-4.2-2.7
	c-19.4,1.2-38.8,2.2-58.1,3.4c-14.7,0.9-29.4,1.9-44.1,3.2c-15,1.3-29.9,2.8-44.8,4.3c-18.5,1.9-37,4-55.5,5.6
	c-4,0.4-8.1-0.6-12.1-1.4c71.7-11.4,143.8-18.2,216.5-19.3c-0.9-23.5,2.8-46.3,6.5-69.6c-3.6,0.4-7.1,0.7-10.4,1.3
	c-11.5,2.1-22.9,4.4-34.4,6.5c-2.1,0.4-3.1,1.5-3.9,3.3c-7.2,16.3-14.5,32.5-21.8,48.8C306.1,170.8,305.6,171.6,305,172.8z
	 M333.8,109.2c4.4-0.8,7.9-1.7,11.4-2.2c10.1-1.5,20.2-2.9,30.3-4.2c2.2-0.3,3.1-1,3.3-3.4c0.3-3.6,1.3-7.1,1.8-10.6
	c2.3-16.4,4.7-32.7,6.6-49.2c0.6-5.1-0.1-10.4-0.2-15.6c-0.3-0.1-0.6-0.2-0.9-0.3c-1.3,0.9-2.8,1.7-3.8,2.9
	c-3.1,3.6-6.5,7.1-8.9,11.1c-10.3,17.6-20.4,35.4-30.5,53.2C339.7,96.7,337,102.7,333.8,109.2z"/>
<path d="M153.7,117.7c-2.4,2-5.3,4.7-8.4,7c-2.1,1.5-4.5,2.8-7,3.4c-7.4,1.9-12.1-1.9-12.6-9.5c-0.4-6.3,1.3-12.2,3.2-18
	c0.9-2.8,2-5.4,3.1-8.5c1.5,0.7,2.7,1.1,3.8,1.8c1.9,1.1,2.3,2.5,1.5,4.8c-2.1,6.1-3.7,12.5-5.5,18.7c-0.2,0.6-0.3,1.4-0.2,2
	c0.3,1.1,0.5,2.9,1.2,3.2c1,0.4,2.9,0,3.6-0.8c3.3-3.3,6.9-6.4,9.5-10.3c5.1-7.7,9.7-15.7,14.5-23.6c0.8-1.3,0.9-3.5,3.4-2.5
	c3,1.2,4.4,3,3.8,5.6c-1.6,6.2-3.2,12.4-4.7,18.7c-0.1,0.5-0.2,0.9-0.4,2c3-2.3,5.5-4.4,8.3-6.2c7.4-4.8,14.9-9.5,22.4-14.3
	c0.8-0.5,1.4-1.3,2-2c2.8-3.5,5.4-7.2,8.5-10.4c4.4-4.4,7.4-3.8,10.7,1.5c1.2,2,2.2,4.1,3.6,6.6c1.6-2.7,3.2-5,4.4-7.5
	c1-1.9,2-2,3.7-1c3.4,2.1,3.4,2.7,2.3,6.5c-1.5,4.9-2.6,9.9-3.7,14.9c-0.3,1.3-0.1,2.7,0.2,4.1c1,4.7,2.5,5.4,6.9,3.5
	c7.5-3.3,12.6-9.3,17.7-15.4c3.7-4.5,7.2-9.2,11-13.7c1.6-1.9,3.7-3.2,5.6-4.8c0.4,0.2,0.8,0.5,1.2,0.7c-2.2,7.5-4.4,15-6.5,22.5
	c0.1,0.1,0.3,0.2,0.4,0.3c4.3-4.5,8.4-9,12.8-13.4c2.9-3,6-5.9,9.3-8.3c1.5-1.1,4.1-1.6,5.9-1.1c2.5,0.7,2.6,3.4,2.4,5.7
	c-0.2,3-0.6,6-0.9,9c-0.1,1.2-0.3,2.3-0.2,3.5c0.3,4,2.3,5.6,6.3,4.7c6.4-1.4,11.4-5.4,16.1-9.6c3.3-2.9,6-6.4,9.1-9.5
	c1.4-1.4,3.2-2.5,5.1-3.4c0.7,3-0.9,4.9-2.5,6.7c-7.5,8.3-15.8,15.6-25.6,21.2c-2.3,1.3-4.6,2.5-7.1,3.3c-5.9,1.9-10.1-1.7-9.5-7.8
	c0.3-3.5,0.8-7,0.9-10.5c0-1.4-0.9-2.8-1.4-4.2c-1.3,0.7-2.9,1-3.9,2c-7.2,7.5-14.3,15.2-21.4,22.9c-1.6,1.7-3.2,3.3-6.5,3.5
	c2.5-8.3,4.8-16.1,7.1-24c-0.1-0.1-0.3-0.2-0.4-0.2c-0.5,0.8-1,1.7-1.5,2.4c-4.1,5.7-8,11.5-12.4,17c-2.8,3.5-6.5,6.2-11.3,6.6
	c-7.2,0.5-12.4-4-13.2-11.1c-0.1-0.7-0.1-1.3-0.2-2.8c-1.1,1.4-1.8,2.3-2.6,3.2c-4.1,4.5-8.3,9-12.5,13.5c-0.8,0.8-1.8,1.5-2.8,2
	c-3.1,1.7-6.4,3.6-9.8,1c-3.6-2.8-5-6.7-4-11.2c0.7-3.2,1.9-6.3,2.9-9.7c-0.6,0.4-1.3,0.6-1.8,1c-8.9,7.6-17.9,15.1-26.7,22.7
	c-1.1,0.9-1.8,2.5-2.3,3.9c-4.3,13.1-8.3,26.3-12.9,39.3c-1.8,5-4.8,9.6-7.5,14.1c-1.9,3.1-4.5,5.7-8.6,5.9
	c-6.8,0.4-12.4-6.5-11.7-14.1c0.6-6.8,3.8-12.4,7.3-17.9c7.1-11,15.9-20.7,24.9-30.2C151.8,121.5,152.9,119,153.7,117.7z
	 M147.7,137.5c-0.4-0.2-0.8-0.4-1.2-0.6c-5.9,8.7-12.1,17.1-17.5,26.1c-2.5,4.1-3.5,9.2-4.8,14c-0.3,1.1,0.9,2.6,1.5,4
	c1.2-0.6,2.8-1,3.6-1.9C139,166.8,143.4,152.2,147.7,137.5z M211,81.5c-8.6,10.5-15.6,20.6-18.1,33.2c10-6.9,17.1-16.4,24.3-26.2
	C215.1,86.2,213.2,84,211,81.5z"/>
<path d="M402.4,133.8c4.7-4.5,9.6-9.3,14.8-14c2.6-2.3,5.5-4.4,8.3-6.3c0.6-0.4,2.2-0.4,2.5,0c0.5,0.6,0.7,2,0.3,2.7
	c-1,1.7-2.3,3.4-3.8,4.8c-2.5,2.3-5.3,4.3-7.9,6.5c-4.6,3.7-4.4,8.2,0.5,11.4c3.3,2.2,6.9,2.2,10.3,0.5c6.8-3.4,12.3-7.8,15.1-15.4
	c7.2-20,14.8-39.9,22.2-59.9c0.2-0.5,0.5-1,0.7-1.5c4.9,1.1,6.3,3.5,4.7,7.8c-5.6,15-11.2,30.1-16.8,45.1c-0.4,1-0.6,2-0.9,2.8
	c4.8-2.8,9.6-5.6,14.5-8.3c3.8-2.1,7.5-1.9,10.8,1c3,2.7,4.1,7.4,2.4,11.6c-4.4,10.7-11.7,19-21.8,24.8c-6.9,3.9-9.7,2.9-15-4.8
	c-0.8,1.9-1.6,3.8-2.8,6.5c-1.9-2-4.4-3.4-4.9-5.3c-0.5-1.9,1-4.4,1.8-7.2c-1.6,1.3-2.7,2.4-4,3.2c-3,2-6,4-9.2,5.6
	c-8.4,4.3-16.4-0.9-17.8-10.5c-4.3,7-8.2,13.5-12.2,19.9c-4.9-2.5-5.7-4.6-3.9-9.5c9.2-24.7,18.4-49.4,27.6-74.1
	c0.3-0.9,0.8-1.7,1.2-2.6c5.2,1.7,6.1,3.6,4.3,8.4c-7,18.8-13.9,37.5-20.9,56.3C402.5,133.5,402.4,133.8,402.4,133.8z M475.2,114
	c-2.3,1-4.4,1.5-6,2.7c-6.9,4.9-13.7,10-20.5,15.1c-0.7,0.5-1.3,1.8-1.3,2.6c0.2,3,0.7,5.9,1,8.9C455.5,142.7,473.2,125.6,475.2,114
	z"/>
<path d="M555.9,107.9c2.5-0.2,4.5-0.4,6.5-0.5c3.1-0.2,4.7,1.7,3.5,4.6c-1.1,2.8-2.9,5.3-4.1,8c-1.1,2.5-2.3,5-2.6,7.6
	c-0.5,4.2,2.1,6.8,6.4,6c3.2-0.6,6.7-1.6,9-3.6c4.3-3.8,7.8-8.6,11.7-12.9c1.6-1.7,3.3-3.2,5-4.8c0.3,0.2,0.6,0.5,0.9,0.7
	c-0.2,0.6-0.3,1.4-0.7,1.9c-4.4,7-9.5,13.6-16,18.9c-4,3.3-8.6,5.3-13.7,6c-5.6,0.8-9.3-2.7-7.9-8.3c1.2-4.8,3-9.4,4.8-14
	c1.6-4,1.5-4-2.9-4.4c-5.3-0.5-8.4,1.3-10.9,6.1c-2.4,4.6-5.9,8.7-9.1,12.8c-1.1,1.5-2.6,2.7-4,3.9c-8,6.8-18.8,1.8-20.4-8.3
	c-0.2-1.1-0.3-2.3-0.5-3.6c-3.6,4-6.7,8-10.5,11.4c-2.7,2.5-6.1,4.3-9.5,6c-2.9,1.4-5.3-0.1-7.1-2.4c-2.8-3.7-3.5-7.7-2.3-12.1
	c2.8-10.2,8.8-18.4,16.1-25.7c3.6-3.6,6.7-2.8,9.2,1.6c1.4,2.5,2.6,5.2,4.2,8.2c1.5-2.5,2.9-4.7,4.1-7c0.9-1.7,1.7-1.7,3.2-0.7
	c3.4,2.5,3.7,3.4,2.2,7.2c-2.1,5.2-3.5,10.5-3.3,16.2c0.3,6.9,2.6,8.4,8.8,5.6c5.8-2.6,9.8-7.3,13.9-11.8c1.4-1.5,2.6-3.2,3.9-4.8
	c1.6-1.9,2.9-3.7,2.8-6.7c-0.2-4.3,6.3-11.5,10.6-12.6c2.5-0.6,3.9,0.6,3.2,3.1c-0.5,1.7-1.5,3.4-2.4,4.9
	C557.7,105.7,556.9,106.6,555.9,107.9z M487.1,135.8c0.3,0.2,0.5,0.4,0.8,0.6c0.7-0.4,1.6-0.7,2.2-1.2c7.5-6.1,13.7-13.5,19.3-21.4
	c0.4-0.5,0.5-1.8,0.1-2.3c-1.6-2-3.3-3.9-5.3-6.2C496.4,114.9,489.7,124.2,487.1,135.8z"/>
</svg>
